<svg id="Group_135269" data-name="Group 135269" xmlns="http://www.w3.org/2000/svg" width="91.264" height="91.264" viewBox="0 0 91.264 91.264">
  <path id="Path_155954" data-name="Path 155954" d="M89.644,46.105c0-23.7-19.485-42.917-43.527-42.917a44.539,44.539,0,0,0-7.444.627A25.4,25.4,0,0,0,25.246,0,25.066,25.066,0,0,0,0,24.892,24.527,24.527,0,0,0,3.468,37.481a42.575,42.575,0,0,0-.884,8.624c0,23.706,19.491,42.922,43.527,42.922a44.776,44.776,0,0,0,7.974-.719,25.44,25.44,0,0,0,11.938,2.955,25.067,25.067,0,0,0,25.24-24.886A24.512,24.512,0,0,0,88.64,55.323a42.38,42.38,0,0,0,1-9.218Z" transform="translate(0 0)" fill="#03a9f4"/>
  <path id="Path_155955" data-name="Path 155955" d="M51.569,53.493A19.727,19.727,0,0,1,42.722,60.1a35.9,35.9,0,0,1-13.6,2.367c-6.252,0-11.494-1.084-15.589-3.228a20.232,20.232,0,0,1-7.164-6.274A13.492,13.492,0,0,1,3.587,45.21,5.345,5.345,0,0,1,5.4,41.166,6.421,6.421,0,0,1,9.947,39.5a5.82,5.82,0,0,1,3.833,1.312,9.915,9.915,0,0,1,2.55,3.679,21.224,21.224,0,0,0,2.493,4.364,9.682,9.682,0,0,0,3.656,2.795,15.292,15.292,0,0,0,6.32,1.112,15.525,15.525,0,0,0,8.767-2.253c2.173-1.455,3.223-3.211,3.223-5.356a5.259,5.259,0,0,0-1.677-4.067,12,12,0,0,0-4.643-2.533Q30.521,37.4,26.483,36.6a63.354,63.354,0,0,1-11.408-3.365A18.853,18.853,0,0,1,7.6,27.848,13.306,13.306,0,0,1,4.779,19.24a13.81,13.81,0,0,1,2.955-8.681,18.322,18.322,0,0,1,8.453-5.79A37.405,37.405,0,0,1,28.958,2.79,34.893,34.893,0,0,1,39.117,4.113,22.49,22.49,0,0,1,46.3,7.644a15.41,15.41,0,0,1,4.232,4.694A10.246,10.246,0,0,1,51.9,17.232a5.789,5.789,0,0,1-1.785,4.141,6.04,6.04,0,0,1-4.472,1.837,5.576,5.576,0,0,1-3.748-1.152,13.965,13.965,0,0,1-2.6-3.411,14.3,14.3,0,0,0-3.907-4.769c-1.466-1.1-3.907-1.648-7.273-1.648a13.766,13.766,0,0,0-7.541,1.837c-1.814,1.169-2.7,2.515-2.7,4.113a3.725,3.725,0,0,0,.873,2.493,7.7,7.7,0,0,0,2.6,1.945,19.306,19.306,0,0,0,3.5,1.34c1.209.331,3.234.827,6.023,1.46,3.525.742,6.759,1.58,9.623,2.487a30.84,30.84,0,0,1,7.455,3.348,14.768,14.768,0,0,1,4.905,5.105,15.152,15.152,0,0,1,1.768,7.563,16.159,16.159,0,0,1-3.052,9.571Z" transform="translate(16.873 13.124)" fill="#fafafa"/>
</svg>
