<svg id="Group_135268" data-name="Group 135268" xmlns="http://www.w3.org/2000/svg" width="91.264" height="91.264" viewBox="0 0 91.264 91.264">
  <path id="Path_155952" data-name="Path 155952" d="M45.643,0H45.62A45.6,45.6,0,0,0,8.687,72.378L3,89.33l17.54-5.607A45.624,45.624,0,1,0,45.643,0Z" transform="translate(0)" fill="#4caf50"/>
  <path id="Path_155953" data-name="Path 155953" d="M56.427,47.226c-1.1,3.109-5.47,5.687-8.955,6.44-2.384.508-5.5.913-15.983-3.434C18.08,44.676,9.444,31.049,8.771,30.165,8.126,29.281,3.352,22.95,3.352,16.4A14.568,14.568,0,0,1,8.018,5.3a6.63,6.63,0,0,1,4.666-1.637c.565,0,1.072.029,1.529.051,1.34.057,2.014.137,2.9,2.253,1.1,2.652,3.782,9.2,4.1,9.874a2.716,2.716,0,0,1,.194,2.47A7.886,7.886,0,0,1,19.928,20.4c-.673.776-1.312,1.369-1.985,2.2-.616.724-1.312,1.5-.536,2.841a40.5,40.5,0,0,0,7.4,9.2,33.548,33.548,0,0,0,10.7,6.6,2.885,2.885,0,0,0,3.217-.508,55.211,55.211,0,0,0,3.565-4.723,2.547,2.547,0,0,1,3.274-.992c1.232.428,7.752,3.651,9.092,4.318s2.225.992,2.55,1.557S57.528,44.112,56.427,47.226Z" transform="translate(15.768 17.212)" fill="#fafafa"/>
</svg>
