<svg xmlns="http://www.w3.org/2000/svg" width="239.658" height="57.886" viewBox="0 0 239.658 57.886">
  <g id="Group_70545" data-name="Group 70545" transform="translate(-96 -55.959)">
    <path id="Path_214" data-name="Path 214" d="M239.471,68.957h-7.19l-1.35,4.007h-4.263l6.964-19.494h4.608l6.911,19.494h-4.422ZM238.332,65.6l-2.437-7.671L233.38,65.6Zm21.092-5.5a7.73,7.73,0,0,1,1.748,5.475,8.652,8.652,0,0,1-1.722,5.806,5.533,5.533,0,0,1-4.409,2,4.609,4.609,0,0,1-2.86-.86,5.537,5.537,0,0,1-1.219-1.389v7.512h-3.733V58.548h3.614v2.129a6.053,6.053,0,0,1,1.3-1.481,4.773,4.773,0,0,1,2.993-.965A5.679,5.679,0,0,1,259.424,60.1Zm-2.146,5.66a5.631,5.631,0,0,0-.767-2.949,2.637,2.637,0,0,0-2.463-1.283,2.809,2.809,0,0,0-2.82,1.944,7.349,7.349,0,0,0-.4,2.619,4.174,4.174,0,0,0,1.338,3.531,3.047,3.047,0,0,0,1.88.6,2.708,2.708,0,0,0,2.4-1.217A5.636,5.636,0,0,0,257.279,65.756ZM276,60.1a7.73,7.73,0,0,1,1.747,5.475,8.653,8.653,0,0,1-1.721,5.806,5.535,5.535,0,0,1-4.409,2,4.614,4.614,0,0,1-2.861-.86,5.558,5.558,0,0,1-1.218-1.389v7.512h-3.733V58.548h3.614v2.129a6.052,6.052,0,0,1,1.3-1.481,4.771,4.771,0,0,1,2.993-.965A5.679,5.679,0,0,1,276,60.1Zm-2.146,5.66a5.621,5.621,0,0,0-.768-2.949,2.634,2.634,0,0,0-2.462-1.283,2.809,2.809,0,0,0-2.82,1.944,7.35,7.35,0,0,0-.4,2.619,4.174,4.174,0,0,0,1.338,3.531,3.045,3.045,0,0,0,1.88.6,2.71,2.71,0,0,0,2.4-1.217A5.636,5.636,0,0,0,273.856,65.756Zm5.217-7.208h4.237l3.005,10.633,3.072-10.633h4.052l-5.2,14.416H284.25Zm28.865,10.184a4.779,4.779,0,0,1-1.337,2.605,6.556,6.556,0,0,1-5.191,2.1,7.324,7.324,0,0,1-4.86-1.772q-2.1-1.772-2.1-5.766a8.022,8.022,0,0,1,1.894-5.74,6.522,6.522,0,0,1,4.939-2,7.575,7.575,0,0,1,3.244.674,5.686,5.686,0,0,1,2.383,2.129,7.269,7.269,0,0,1,1.1,2.976,19.142,19.142,0,0,1,.119,2.857h-9.877a3.581,3.581,0,0,0,1.364,3.042,3.215,3.215,0,0,0,1.88.542,2.708,2.708,0,0,0,1.894-.661,3.153,3.153,0,0,0,.7-.992ZM304.2,64.315a3.241,3.241,0,0,0-.914-2.262,2.782,2.782,0,0,0-2.012-.78,2.585,2.585,0,0,0-2.039.82,4.115,4.115,0,0,0-.9,2.222Zm13.267-2.976a2.627,2.627,0,0,0-2.635,1.627,5.577,5.577,0,0,0-.371,2.2v7.8H310.7V58.575h3.642v2.1a6.4,6.4,0,0,1,1.377-1.6,4.787,4.787,0,0,1,2.952-.873,5.525,5.525,0,0,1,3.654,1.177,4.723,4.723,0,0,1,1.43,3.875v9.708h-3.866V64.2a4.01,4.01,0,0,0-.3-1.746A2.143,2.143,0,0,0,317.471,61.339Zm16.392,8.94V73.1l-1.789.066q-2.674.093-3.654-.926a2.754,2.754,0,0,1-.635-2V61.365h-2.013V58.681h2.013V54.66h3.733v4.021h2.344v2.685h-2.344v7.618a1.744,1.744,0,0,0,.226,1.111,2.543,2.543,0,0,0,1.376.212h.358Zm11.677.648q-.053.066-.264.4a2.651,2.651,0,0,1-.5.582,5.232,5.232,0,0,1-1.722,1.084,5.785,5.785,0,0,1-1.933.291q-3.2,0-4.316-2.3a8.8,8.8,0,0,1-.623-3.743V58.548h3.866v8.689a4.542,4.542,0,0,0,.291,1.852,2.017,2.017,0,0,0,2.026,1.1,2.649,2.649,0,0,0,2.648-1.561,5.659,5.659,0,0,0,.371-2.235V58.548h3.827V72.964H345.54Zm14.579-8.9a3.131,3.131,0,0,0-3.059,1.481,5.753,5.753,0,0,0-.437,2.566v6.89h-3.8V58.548h3.6v2.513a7.974,7.974,0,0,1,1.523-1.971A4.147,4.147,0,0,1,360.7,58.2a.9.9,0,0,1,.173.013c.053,0,.163,0,.331.013v3.862c-.238-.027-.451-.044-.636-.053S360.233,62.027,360.119,62.027Zm15.663,6.705a4.775,4.775,0,0,1-1.338,2.605,6.554,6.554,0,0,1-5.19,2.1,7.324,7.324,0,0,1-4.86-1.772q-2.1-1.772-2.105-5.766a8.027,8.027,0,0,1,1.893-5.74,6.522,6.522,0,0,1,4.94-2,7.575,7.575,0,0,1,3.244.674,5.686,5.686,0,0,1,2.383,2.129,7.267,7.267,0,0,1,1.1,2.976,19.134,19.134,0,0,1,.119,2.857H366.09a3.581,3.581,0,0,0,1.364,3.042,3.215,3.215,0,0,0,1.88.542,2.708,2.708,0,0,0,1.894-.661,3.155,3.155,0,0,0,.7-.992Zm-3.734-4.417a3.236,3.236,0,0,0-.913-2.262,2.784,2.784,0,0,0-2.012-.78,2.585,2.585,0,0,0-2.039.82,4.116,4.116,0,0,0-.9,2.222Zm17.61,8.649H377.2V70.028l7.4-8.411h-6.9V58.548h11.705v3.134l-7.323,8.187h7.574Z" transform="translate(-54 18.849)" fill="#fff"/>
    <path id="ao" d="M64.041,41.023c2.226,4.842,1.252,11.029-3.061,14.391a11.753,11.753,0,0,1-8.348,2.421c-6.816-.673-11.825-7.533-10.3-13.988.556-2.421,2.226-4.3,3.061-6.59a2.419,2.419,0,0,0,.278-.941,14.33,14.33,0,0,0,.974-4.842,7.96,7.96,0,0,0-.14-1.882,6.582,6.582,0,0,0-.278-1.614l-.418-1.211A13.89,13.89,0,0,0,32.6,17.89a14.083,14.083,0,0,0-13.217,8.877l-.418,1.211a6.518,6.518,0,0,0-.278,1.614,8.556,8.556,0,0,0-.14,1.882,11.2,11.2,0,0,0,.974,4.842c.14.269.14.673.278.941.834,2.287,2.5,4.3,3.061,6.59,1.53,6.456-3.617,13.315-10.3,13.988a11.755,11.755,0,0,1-8.348-2.421C-.1,52.052-1.07,45.865,1.155,41.023c.556-1.211,12.659-20.578,18.085-28.918,1.808-2.689,3.477-5.514,5.425-7.935.418-.4.834-.941,1.252-1.345a9.306,9.306,0,0,1,13.356,0A12.305,12.305,0,0,1,40.525,4.17a73.1,73.1,0,0,1,5.425,7.935c5.425,8.474,17.528,27.706,18.085,28.918ZM60.7,8.609a4.306,4.306,0,1,1,4.451-4.3A4.323,4.323,0,0,1,60.7,8.609Z" transform="translate(96 55.959)" fill="#fff"/>
  </g>
</svg>
