<svg id="Group_70739" data-name="Group 70739" xmlns="http://www.w3.org/2000/svg" width="178.503" height="26.683" viewBox="0 0 178.503 26.683">
  <path id="Path_117903" data-name="Path 117903" d="M128.8,7.987l4.254,8.508,9.668,1.547-6.961,6.574,1.547,9.668-8.508-4.64-8.507,4.64,1.934-9.668-6.961-6.574,9.281-1.547Zm38.671,0,4.254,8.508L181,18.041l-6.574,6.574,1.547,9.668-8.508-4.64-8.507,4.64,1.547-9.668-6.961-6.574,9.668-1.547ZM92.989,7.6l4.254,8.894,9.668,1.16L99.95,24.615,101.5,33.9l-8.508-4.254L84.868,33.9l1.547-9.281-6.961-6.961,9.281-1.16Zm-76.568,0,4.254,8.894,9.281,1.16L23,24.615,24.542,33.9l-8.121-4.254L7.914,33.9l1.547-9.281L2.5,17.654l9.668-1.16Zm38.284,0,4.254,8.894,9.668,1.16-6.961,6.961L63.213,33.9l-8.508-4.254L46.2,33.9l1.547-9.281-6.961-6.961,9.668-1.16Z" transform="translate(-2.5 -7.6)" fill="#007bff"/>
  <path id="Path_117904" data-name="Path 117904" d="M51.612,31.189,52,30.416a7.551,7.551,0,0,0-1.16-8.894l-1.16-1.16h.387a8.147,8.147,0,0,0,6.187-5.027l.773-2.32L54.705,7.6l-4.254,8.508-9.668,1.547,6.961,6.574L46.2,33.509Zm-38.284,0,.387-.773a7.551,7.551,0,0,0-1.16-8.894l-1.16-1.16h.387a8.147,8.147,0,0,0,6.187-5.027l.773-2.32L16.421,7.6l-4.254,8.894L2.5,18.041l6.961,6.574L7.914,33.9Zm76.568,0,.387-.773a7.551,7.551,0,0,0-1.16-8.894l-1.16-1.16h.387a8.147,8.147,0,0,0,6.187-5.027l.773-2.32-2.32-5.027-4.254,8.508-9.668,1.547,6.961,6.574L84.481,33.9,89.9,31.189Zm74.68,0,.387-.773a7.551,7.551,0,0,0-1.16-8.894l-1.16-1.16h.387a8.147,8.147,0,0,0,6.187-5.027l.773-2.32-2.32-5.027-4.254,8.508-9.668,1.547,6.961,6.574L159.162,33.9l5.414-2.707Zm-38.671,0,.387-.773a7.551,7.551,0,0,0-1.16-8.894l-1.16-1.16h.387a8.147,8.147,0,0,0,6.187-5.027l.773-2.32L129,7.987l-4.254,8.508-9.668,1.547,6.961,6.574L120.491,33.9Z" transform="translate(-2.5 -7.6)" fill="#016de0"/>
  <path id="Path_117905" data-name="Path 117905" d="M33.128,30.9l.387-.773a7.551,7.551,0,0,0-1.16-8.894l-1.16-1.16h.387a8.147,8.147,0,0,0,6.187-5.027l.773-2.32L36.221,7.7l-4.254,8.508L22.3,17.754l6.961,6.574-1.547,9.281L33.128,30.9Z" transform="translate(54.268 -7.313)" fill="#006de0"/>
</svg>
