<svg xmlns="http://www.w3.org/2000/svg" width="40.002" height="26.668" viewBox="0 0 40.002 26.668"><g id="Group_133611" data-name="Group 133611" transform="translate(0 -85.331)"><path id="Path_154816" data-name="Path 154816" d="M0,85.331H40V112H0Z" transform="translate(0 0)" fill="#f0f0f0"></path><path id="Path_154817" data-name="Path 154817" d="M0,127.994H40v3.333H0Zm0,6.667H40v3.333H0Zm0,6.666H40v3.333H0Zm0,6.667H40v3.333H0Z" transform="translate(0 -39.33)" fill="#d80027"></path><path id="Path_154818" data-name="Path 154818" d="M0,85.331H20v14.36H0Z" transform="translate(0 0)" fill="#2e52b2"></path><path id="Path_154819" data-name="Path 154819" d="M31.769,118.426l-.322.991H30.4l.843.612-.322.991.843-.612.843.612-.322-.991.843-.612H32.09Zm.322,4.567L31.769,122l-.322.991H30.4l.843.612-.322.991.843-.612.843.612-.322-.991.843-.612Zm-4.4,0L27.365,122l-.322.991H26l.843.612-.322.991.843-.612.843.612-.322-.991.843-.612Zm-.322-4.567-.322.991H26l.843.612-.322.991.843-.612.843.612-.322-.991.843-.612H27.687Zm4.4-3.576-.322.991H30.4l.843.612-.322.991.843-.612.843.612-.322-.991.843-.612H32.09Zm-4.4,0-.322.991H26l.843.612-.322.991.843-.612.843.612-.322-.991.843-.612H27.687Zm8.807,3.576-.322.991H34.808l.843.612-.322.991.843-.612.843.612-.322-.991.843-.612H36.494Zm.322,4.567L36.172,122l-.322.991H34.808l.843.612-.322.991.843-.612.843.612-.322-.991.843-.612Zm4.4,0L40.576,122l-.322.991H39.212l.843.612-.322.991.843-.612.843.612-.322-.991.843-.612Zm-.322-4.567-.322.991H39.212l.843.612-.322.991.843-.612.843.612-.322-.991.843-.612H40.9Zm-4.4-3.576-.322.991H34.808l.843.612-.322.991.843-.612.843.612-.322-.991.843-.612H36.494Zm4.4,0-.322.991H39.212l.843.612-.322.991.843-.612.843.612-.322-.991.843-.612H40.9Z" transform="translate(-23.97 -27.213)" fill="#f0f0f0"></path></g></svg>